<svg xmlns="http://www.w3.org/2000/svg" viewBox="0 0 256 256" enable-background="new 0 0 256 256"><path fill="#F05F40" d="M256 208c0 26.4-21.6 48-48 48h-160c-26.4 0-48-21.6-48-48v-160c0-26.4 21.6-48 48-48h160c26.4 0 48 21.6 48 48v160z"/><path d="M61.7 126.5s17.6-8.2 32.2-7.1c14.6 1 26.2 8.9 28.7 10.7l-15.8 54.4s-17.6-11.4-30.1-10.4-23.4 3-30.6 6.7l15.6-54.3zm69.1 8.9s16.7 10.9 27.7 10.6c10.8-.2 18.2-1.1 32.9-6.9l.3-.2c-.3.2-15.7 53.9-15.7 53.9s-17.3 8.1-32.9 7.3-25-9.8-27.9-10.9l15.6-53.8zm18.4-63.3l-15.8 53.5s12.8 12.5 30.7 11.4c18-1 27.8-6.7 30.2-7.5l15.6-54s-20.7 8.6-34.2 7.1c-13.6-1.6-22-7.3-26.5-10.5zm-24.1 48.1c-28-21.5-60.7-3.3-60.7-3.3l15.7-54.2s32.7-17.8 60.7 3.7l-15.7 53.8z" fill="#fff"/></svg>