<svg xmlns="http://www.w3.org/2000/svg" viewBox="0 0 256 256" enable-background="new 0 0 256 256"><path fill="#F05F40" d="M256 208c0 26.4-21.6 48-48 48h-160c-26.4 0-48-21.6-48-48v-160c0-26.4 21.6-48 48-48h160c26.4 0 48 21.6 48 48v160z"/><path d="M56.8 84.9v14.6h-9.9v-42.6h17.3c5.2 0 9.2 1.3 12.1 3.8 2.9 2.5 4.4 5.9 4.4 10.2s-1.5 7.7-4.4 10.2c-2.9 2.5-7 3.8-12.1 3.8h-7.4zm0-7.6h7.4c2.2 0 3.8-.6 4.9-1.7 1.1-1.2 1.7-2.7 1.7-4.6 0-1.9-.5-3.5-1.6-4.7-1.1-1.2-2.7-1.8-5-1.8h-7.4v12.8zm46.8 22.2c-.3-.5-.5-1.1-.8-1.7-.2-.6-.4-1.3-.6-2-1 1.3-2.1 2.4-3.4 3.1-1.3.8-2.9 1.1-4.8 1.1-3.1 0-5.5-.9-7.4-2.6-1.9-1.7-2.8-4-2.8-7 0-3.2 1.2-5.6 3.5-7.3 2.3-1.7 5.9-2.5 10.8-2.5h3.6v-2.3c0-1.4-.3-2.4-.9-3.1-.6-.7-1.6-1.1-3-1.1-1.2 0-2 .3-2.6.8-.5.5-.8 1.4-.8 2.5h-9.9c0-3 1.3-5.5 3.8-7.5 2.5-1.9 5.9-2.9 10.2-2.9 4 0 7.2 1 9.6 2.9 2.4 1.9 3.6 4.7 3.6 8.4v12c0 1.7.1 3.3.4 4.7.3 1.4.7 2.9 1.3 4.3h-9.8zm-6.5-6.4c1 0 1.9-.2 2.7-.6.8-.4 1.5-.9 2-1.5v-5h-3.5c-1.6 0-2.7.4-3.4 1.1-.7.8-1 1.7-1 2.9 0 .9.3 1.7.9 2.2.5.6 1.3.9 2.3.9zm39.1 2.7c-1 1.4-2.3 2.5-3.7 3.2-1.4.7-3.1 1.1-5 1.1-3.4 0-6-1-7.8-3.1-1.8-2.1-2.7-5.3-2.7-9.9v-19.3h9.9v19.4c0 1.8.3 3.1 1 4 .7.8 1.6 1.3 2.9 1.3 1.1 0 2-.1 2.8-.4.8-.3 1.5-.7 2.1-1.3v-23h9.9v31.7h-8.6l-.8-3.7zm31.2-5.2c0-.8-.4-1.5-1.3-2.1-.9-.6-2.5-1.2-4.9-1.6-3.8-.7-6.5-1.9-8.4-3.3-1.8-1.5-2.8-3.6-2.8-6.3 0-2.9 1.2-5.2 3.5-7.1 2.3-1.9 5.5-2.9 9.6-2.9 4.3 0 7.7.9 10.2 2.8 2.5 1.9 3.7 4.4 3.7 7.5h-9.9c0-1.3-.3-2.2-.9-2.9-.6-.6-1.7-1-3.1-1-1.1 0-1.9.3-2.6.8-.7.6-1 1.3-1 2.2 0 .8.4 1.6 1.2 2.1s2.4 1.1 4.9 1.6c3.9.8 6.8 1.9 8.7 3.4 1.8 1.5 2.7 3.6 2.7 6.5s-1.2 5.3-3.7 7.1c-2.5 1.8-5.8 2.7-10.1 2.7-4.4 0-7.8-1.1-10.3-3.2-2.5-2.2-3.7-4.7-3.7-7.5h9.2c0 1.5.5 2.6 1.3 3.3s2.1 1 3.7 1c1.4 0 2.4-.2 3-.7.7-.7 1-1.4 1-2.4zm28.7 9.5c-4.7 0-8.5-1.4-11.2-4.3-2.7-2.9-4.1-6.6-4.1-11.1v-1.1c0-4.9 1.2-8.9 3.7-11.9s6.1-4.5 10.9-4.5c4.4 0 7.8 1.3 10.2 3.8 2.4 2.5 3.6 6 3.6 10.6v5.2h-18.4c.3 1.7 1 3.1 2.2 4.2 1.1 1 2.6 1.6 4.5 1.6s3.4-.1 4.5-.4c1.1-.3 2.5-.8 4.2-1.5l1.7 6.6c-1.3.9-3 1.6-5 2.1s-4.4.7-6.8.7zm-.7-25.2c-1.5 0-2.5.5-3.3 1.5-.7 1-1.2 2.4-1.4 4.2h8.7v-.8c0-1.6-.3-2.9-1-3.7-.6-.8-1.6-1.2-3-1.2zm-144.1 123.6v-42.7h15c5.4 0 9.5 1 12.3 2.9 2.8 1.9 4.2 4.9 4.2 8.8 0 2.1-.5 3.9-1.4 5.4-.9 1.6-2.4 2.7-4.3 3.5v.1c2.5.6 4.3 1.7 5.4 3.4 1.2 1.7 1.7 3.7 1.7 5.9 0 4.3-1.3 7.4-4 9.5-2.6 2.1-6.6 3.1-11.9 3.1h-17zm9.9-24.8h5.2c2.2 0 3.9-.5 4.9-1.3 1-.8 1.5-2 1.5-3.7 0-1.9-.5-3.2-1.5-4-1-.8-2.7-1.2-5.1-1.2h-5v10.2zm0 6.5v10.7h7.1c2.1 0 3.6-.5 4.6-1.4 1-.9 1.5-2.2 1.5-3.8 0-1.8-.4-3.2-1.3-4.1-.9-.9-2.3-1.4-4.4-1.4h-7.5zm46-4.6h-3.6c-1.2 0-2.1.2-2.8.6-.7.4-1.2.9-1.6 1.6v20.8h-9.9v-31.7h9.3l.4 4.5h.1c.6-1.6 1.5-2.9 2.6-3.8 1.1-.9 2.4-1.3 3.8-1.3.5 0 1 0 1.5.1s.9.2 1.3.2l-1.1 9zm18.2 23.5c-4.7 0-8.5-1.4-11.2-4.3-2.7-2.9-4.1-6.6-4.1-11.1v-1.1c0-4.9 1.2-8.9 3.7-11.9s6.1-4.5 10.9-4.5c4.4 0 7.8 1.3 10.2 3.8 2.4 2.5 3.6 6 3.6 10.6v5.2h-18.4c.3 1.7 1 3.1 2.2 4.2 1.1 1 2.6 1.6 4.5 1.6s3.4-.1 4.5-.4c1.1-.3 2.5-.8 4.2-1.5l1.7 6.6c-1.3.9-3 1.6-5 2.1-2.1.4-4.4.7-6.8.7zm-.7-25.2c-1.5 0-2.5.5-3.3 1.5-.7 1-1.2 2.4-1.4 4.2h8.7v-.8c0-1.6-.3-2.9-1-3.7-.5-.8-1.6-1.2-3-1.2zm36.2 24.6c-.3-.5-.5-1.1-.8-1.7-.2-.6-.4-1.3-.6-2-1 1.3-2.1 2.4-3.4 3.1-1.3.8-2.9 1.1-4.8 1.1-3.1 0-5.5-.9-7.4-2.6-1.9-1.7-2.8-4-2.8-7 0-3.2 1.2-5.6 3.5-7.3 2.3-1.7 5.9-2.5 10.8-2.5h3.6v-2.3c0-1.4-.3-2.4-.9-3.1-.6-.7-1.6-1.1-3-1.1-1.2 0-2 .3-2.6.8-.5.5-.8 1.4-.8 2.5h-9.9c0-3 1.3-5.5 3.8-7.5 2.5-1.9 5.9-2.9 10.2-2.9 4 0 7.2 1 9.6 2.9 2.4 1.9 3.6 4.7 3.6 8.4v12c0 1.7.1 3.3.4 4.7.3 1.4.7 2.9 1.3 4.3h-9.8zm-6.6-6.4c1 0 1.9-.2 2.7-.6.8-.4 1.5-.9 2-1.5v-5h-3.5c-1.6 0-2.8.4-3.4 1.1-.7.8-1 1.7-1 2.9 0 .9.3 1.7.9 2.2.5.6 1.3.9 2.3.9zm31.9-6.2h-1.9v12.6h-9.9v-45.7h9.9v25.6h1.6l6.4-11.6h11.4l-9.6 14.4 10.5 17.3h-11.3l-7.1-12.6zm-151.2-61.9h186v8h-186z" fill="#fff"/></svg>