<svg xmlns="http://www.w3.org/2000/svg" viewBox="0 0 256 512" enable-background="new 0 0 256 512"><path d="M130 393c-17.3 0-31.4-13.8-32-31v1c0 17.7 14.3 32 32 32s32-14.3 32-32v-1c-.6 17.2-14.7 31-32 31zm0-109c43.2 0 78.4 34.9 79 78v-1c0-43.6-35.4-79-79-79s-79 35.4-79 79v1c.6-43.1 35.8-78 79-78zm-103 224h24v2h-24zm204-146c-.5 55.2-45.6 100-101 100-31.1 0-59.7-13.8-79-38.1v2c19.3 24.2 47.9 38.1 79 38.1 55.7 0 101-45.3 101-101v-1z" opacity=".5"/><path fill="#fff" d="M130 260c-31.1 0-59.7 13.8-79 38.1v-34.1h-24v244h24v-84.1c19.3 24.2 47.9 38.1 79 38.1 55.7 0 101-45.3 101-101s-45.3-101-101-101zm0 180c-43.6 0-79-35.4-79-79s35.4-79 79-79 79 35.4 79 79-35.4 79-79 79z"/><radialGradient id="a" cx="130" cy="361" r="32" gradientUnits="userSpaceOnUse"><stop offset=".5" stop-color="#F30A0A"/><stop offset="1" stop-color="#9B0000"/></radialGradient><circle fill="url(#a)" cx="130" cy="361" r="32"/><linearGradient id="b" gradientUnits="userSpaceOnUse" x1="130" y1="391" x2="130" y2="359"><stop offset="0" stop-color="#fff" stop-opacity=".8"/><stop offset=".5" stop-color="#fff" stop-opacity="0"/></linearGradient><path opacity=".8" fill="url(#b)" d="M130 387c-15.9 0-28.9-12.4-29.9-28l-.1 2c0 16.6 13.4 30 30 30s30-13.4 30-30c0-.7 0-1.3-.1-2-1 15.6-14 28-29.9 28z"/><linearGradient id="c" gradientUnits="userSpaceOnUse" x1="130" y1="331" x2="130" y2="368"><stop offset="0" stop-color="#fff" stop-opacity=".8"/><stop offset="1" stop-color="#fff" stop-opacity="0"/></linearGradient><ellipse fill="url(#c)" cx="130" cy="349.5" rx="24" ry="18.5"/><linearGradient id="d" gradientUnits="userSpaceOnUse" x1="130" y1="331" x2="130" y2="350"><stop offset="0" stop-color="#fff" stop-opacity=".8"/><stop offset="1" stop-color="#fff" stop-opacity="0"/></linearGradient><path opacity=".8" fill="url(#d)" d="M130 332c13 0 23.6 8 24 18v-.5c0-10.2-10.7-18.5-24-18.5s-24 8.3-24 18.5v.5c.4-10 11-18 24-18z"/><path d="M130 137c-17.3 0-31.4-13.8-32-31v1c0 17.7 14.3 32 32 32s32-14.3 32-32v-1c-.6 17.2-14.7 31-32 31zm0-109c43.2 0 78.4 34.9 79 78v-1c0-43.6-35.4-79-79-79s-79 35.4-79 79v1c.6-43.1 35.8-78 79-78zm-103 224h24v2h-24zm204-146c-.5 55.2-45.6 100-101 100-31.1 0-59.7-13.8-79-38.1v2c19.3 24.2 47.9 38.1 79 38.1 55.7 0 101-45.3 101-101v-1z" opacity=".5"/><path opacity=".6" fill="#fff" d="M130 4c-31.1 0-59.7 13.8-79 38.1v-34.1h-24v244h24v-84.1c19.3 24.2 47.9 38.1 79 38.1 55.7 0 101-45.3 101-101s-45.3-101-101-101zm0 180c-43.6 0-79-35.4-79-79s35.4-79 79-79 79 35.4 79 79-35.4 79-79 79z"/><radialGradient id="e" cx="130" cy="105" r="32" gradientUnits="userSpaceOnUse"><stop offset=".5" stop-color="#F30A0A"/><stop offset="1" stop-color="#9B0000"/></radialGradient><circle fill="url(#e)" cx="130" cy="105" r="32"/><linearGradient id="f" gradientUnits="userSpaceOnUse" x1="130" y1="135" x2="130" y2="103"><stop offset="0" stop-color="#fff" stop-opacity=".8"/><stop offset=".5" stop-color="#fff" stop-opacity="0"/></linearGradient><path opacity=".8" fill="url(#f)" d="M130 131c-15.9 0-28.9-12.4-29.9-28l-.1 2c0 16.6 13.4 30 30 30s30-13.4 30-30c0-.7 0-1.3-.1-2-1 15.6-14 28-29.9 28z"/><linearGradient id="g" gradientUnits="userSpaceOnUse" x1="130" y1="75" x2="130" y2="112"><stop offset="0" stop-color="#fff" stop-opacity=".8"/><stop offset="1" stop-color="#fff" stop-opacity="0"/></linearGradient><ellipse fill="url(#g)" cx="130" cy="93.5" rx="24" ry="18.5"/><linearGradient id="h" gradientUnits="userSpaceOnUse" x1="130" y1="75" x2="130" y2="94"><stop offset="0" stop-color="#fff" stop-opacity=".8"/><stop offset="1" stop-color="#fff" stop-opacity="0"/></linearGradient><path opacity=".8" fill="url(#h)" d="M130 76c13 0 23.6 8 24 18v-.5c0-10.2-10.7-18.5-24-18.5s-24 8.3-24 18.5v.5c.4-10 11-18 24-18z"/></svg>