<svg xmlns="http://www.w3.org/2000/svg" viewBox="0 0 256 256" enable-background="new 0 0 256 256"><path fill="#F05F40" d="M256 208c0 26.4-21.6 48-48 48h-160c-26.4 0-48-21.6-48-48v-160c0-26.4 21.6-48 48-48h160c26.4 0 48 21.6 48 48v160z"/><path fill="#fff" d="M161.4 70c-9.5-6.2-19.4-12.6-26.3-23.9l-12.2.1v111.4c-5.8-4.2-13.3-6.8-21.4-6.8-18.6 0-33.6 13.3-33.6 29.5 0 16.3 15 29.5 33.6 29.5s33.6-13.3 33.6-29.5v-102.4c3.8 12.9 13.4 19.1 24.8 26.6 9.5 6.2 26.3 23.8 26.3 23.8 6.8-37.7-6.4-46.3-24.8-58.3z"/></svg>