<svg xmlns="http://www.w3.org/2000/svg" viewBox="0 0 256 256" enable-background="new 0 0 256 256"><path fill="#F05F40" d="M256 208c0 26.4-21.6 48-48 48h-160c-26.4 0-48-21.6-48-48v-160c0-26.4 21.6-48 48-48h160c26.4 0 48 21.6 48 48v160z"/><path fill="#fff" d="M130 209.9c-20.3 0-36.9-12.5-42.2-31.8l-.3-1.1 18.2-6.2.4 1.3c2.4 7.9 8.9 21.3 25.4 21.3 9 0 18.1-4.7 18.1-15.2 0-9.2-7-12.9-14.6-16.7l-2.5-1.3-11.3-5.9-3.4-1.8c-12.9-6.6-26.2-13.5-26.2-30.9 0-8.8 4.4-17.6 11.3-23-5.9-5.6-9.1-13.1-9.1-21.4 0-19.5 18.4-31.2 36.1-31.2 15.6 0 30.2 10.1 36.5 25l.5 1.1-16.2 7.1-.5-1.1c-3.1-7-9.2-15.5-20.7-15.5-8.3 0-16.6 4.6-16.6 15 0 8.3 7.9 12 15 15.4 1 .5 2 1 3 1.4l11.7 5.8c12.2 6.2 26 13.2 26 29.4 0 9-4.3 17.5-11.9 23.8 8.4 6.7 12.2 13.9 12.2 23.1-.4 21.7-20.2 33.4-38.9 33.4zm-13.2-103.1c-4.2 4.2-6.2 9-6.2 14.2 0 4.4 1.4 7.9 8.7 11.8l23.3 12.3c4.1-3.4 6.6-8.6 6.6-13.8 0-8.3-8.7-12.6-15.8-16.2l-.7-.4c.1.1-15.9-7.9-15.9-7.9z"/></svg>