<?xml version="1.0" standalone="no"?>
<!DOCTYPE svg PUBLIC "-//W3C//DTD SVG 20010904//EN"
 "http://www.w3.org/TR/2001/REC-SVG-20010904/DTD/svg10.dtd">
<svg version="1.0" xmlns="http://www.w3.org/2000/svg"
 width="512.000000pt" height="512.000000pt" viewBox="0 0 512.000000 512.000000"
 preserveAspectRatio="xMidYMid meet">
<metadata>
Created by potrace 1.11, written by Peter Selinger 2001-2013
</metadata>
<g transform="translate(0.000000,512.000000) scale(0.100000,-0.100000)"
fill="#000000" stroke="none">
<path d="M2440 5004 c-25 -8 -67 -22 -95 -31 -27 -9 -66 -25 -85 -36 -76 -42
-178 -101 -237 -138 -34 -22 -64 -39 -66 -39 -2 0 -44 -23 -93 -52 -49 -28
-114 -65 -144 -83 -30 -17 -129 -75 -220 -127 -91 -53 -183 -106 -205 -118
-117 -65 -256 -147 -300 -177 -27 -18 -53 -33 -57 -33 -3 0 -45 -22 -93 -50
-48 -27 -88 -50 -90 -50 -18 0 -182 -120 -217 -159 -49 -55 -103 -142 -120
-192 -6 -19 -18 -50 -27 -69 -21 -47 -28 -587 -20 -1595 3 -461 6 -535 20
-565 9 -19 25 -55 35 -80 49 -119 185 -266 286 -310 23 -10 40 -20 89 -52 14
-9 55 -32 90 -51 35 -18 90 -50 121 -70 31 -20 59 -37 62 -37 3 0 114 -63 248
-141 134 -78 290 -168 348 -202 58 -33 122 -71 142 -83 21 -13 40 -24 42 -24
3 0 69 -38 148 -84 79 -45 163 -94 188 -108 25 -14 62 -35 82 -46 83 -47 186
-72 297 -72 57 0 120 4 140 10 20 5 47 11 61 14 26 6 239 124 520 288 19 11
58 33 85 47 28 15 68 39 90 53 23 14 63 38 90 52 28 15 59 32 69 39 11 7 44
27 72 45 29 17 56 32 60 32 6 0 85 46 149 88 11 6 26 15 34 19 8 3 64 35 125
71 61 35 127 73 146 84 19 11 76 44 127 74 51 30 95 54 98 54 11 0 109 77 155
121 44 43 120 148 120 167 0 9 23 63 43 97 11 21 23 572 21 1030 0 132 -2 383
-2 559 -1 175 1 322 3 327 8 12 -16 243 -26 254 -5 5 -9 15 -9 23 0 46 -93
193 -167 263 -41 39 -145 111 -193 132 -8 4 -33 18 -55 32 -22 14 -58 35 -80
46 -22 12 -103 58 -180 104 -77 45 -216 126 -310 180 -93 54 -206 119 -250
145 -44 25 -87 49 -95 53 -8 4 -22 11 -30 17 -35 23 -151 90 -155 90 -4 0
-177 100 -323 187 -40 23 -79 43 -87 43 -9 0 -23 4 -33 9 -71 36 -265 51 -342
25z m-48 -655 c16 -12 40 -39 54 -60 l24 -39 0 -584 c0 -531 -2 -585 -17 -597
-24 -20 -502 -20 -526 0 -14 11 -17 44 -19 230 l-3 216 -41 3 c-27 2 -45 -2
-54 -13 -7 -8 -17 -15 -23 -15 -5 0 -58 -23 -116 -51 -58 -28 -133 -64 -166
-80 -72 -35 -84 -44 -113 -86 -22 -31 -23 -39 -18 -180 2 -82 5 -155 6 -163 0
-8 -2 -29 -5 -45 -5 -22 -1 -37 15 -58 l21 -27 500 0 500 0 30 -32 29 -32 0
-918 c0 -904 0 -918 -20 -956 -12 -22 -28 -46 -38 -53 -28 -23 -79 -49 -95
-49 -17 0 -122 53 -199 100 -26 16 -73 43 -105 61 -32 17 -70 40 -84 50 -15
11 -35 22 -45 26 -24 10 -151 84 -214 124 -14 9 -52 31 -85 49 -49 26 -227
129 -295 170 -57 35 -184 108 -230 132 -82 44 -133 90 -164 149 -27 53 -27 55
-27 253 0 153 3 201 13 207 7 5 120 9 251 9 l237 0 0 -90 c0 -147 9 -157 215
-250 39 -17 109 -51 157 -75 104 -51 140 -61 156 -42 8 10 12 110 13 341 0
297 -1 330 -17 347 -16 18 -38 19 -487 19 -458 0 -470 1 -503 21 l-34 21 0
547 c0 494 2 551 17 582 24 49 115 135 176 165 29 14 84 45 122 70 39 24 77
47 85 51 8 4 38 21 65 37 28 17 68 40 90 51 22 10 47 24 55 31 8 6 38 24 65
38 52 28 57 31 142 84 30 17 56 32 60 32 3 0 29 14 57 32 28 17 65 39 81 48
27 16 119 68 155 90 91 53 150 86 205 115 73 37 87 36 147 -6z m532 -8 c90
-50 103 -65 165 -181 27 -52 68 -126 89 -165 22 -38 62 -113 88 -165 27 -52
77 -146 112 -209 34 -62 62 -117 62 -122 0 -5 5 -9 10 -9 6 0 10 -8 10 -19 0
-10 7 -24 15 -31 8 -7 15 -20 16 -29 0 -9 9 -29 19 -46 10 -16 29 -50 42 -74
12 -24 28 -46 35 -48 7 -3 84 64 171 148 181 175 273 255 308 263 54 14 143
-55 188 -144 l26 -52 0 -886 0 -886 -22 -45 c-29 -61 -103 -133 -169 -166 -30
-15 -65 -35 -79 -45 -14 -9 -45 -29 -70 -42 -25 -14 -66 -37 -91 -52 -38 -22
-48 -24 -63 -13 -16 12 -17 55 -17 660 1 426 -2 647 -9 647 -15 0 -150 -145
-188 -202 -18 -27 -40 -52 -48 -55 -23 -8 -110 82 -144 148 -16 30 -35 61 -43
67 -8 7 -29 41 -46 77 -18 36 -38 65 -44 65 -9 0 -11 -194 -9 -830 3 -737 1
-833 -12 -852 -9 -12 -16 -29 -16 -38 0 -25 -51 -76 -100 -101 -25 -13 -52
-29 -60 -35 -8 -6 -39 -24 -68 -39 -29 -15 -55 -31 -58 -36 -3 -5 -13 -9 -23
-9 -10 0 -24 -7 -31 -15 -31 -37 -137 10 -170 76 -20 37 -20 69 -20 1723 l0
1685 21 36 c26 44 84 84 123 84 16 1 61 -17 100 -38z"/>
</g>
</svg>
