<svg id="Layer_1" xmlns="http://www.w3.org/2000/svg" viewBox="0 0 64 64"><style>.st0{fill:none;} .st1{fill:none;stroke:#647072;stroke-width:2;stroke-linecap:round;stroke-linejoin:round;stroke-miterlimit:10;}</style><path id="XMLID_217_" class="st0" d="M0 0h64v64H0z"/><circle id="XMLID_215_" class="st1" cx="44.3" cy="44.3" r="3.1"/><circle id="XMLID_212_" class="st1" cx="25.1" cy="25.1" r="6.5"/><path id="XMLID_10_" class="st1" d="M14.3 18.4l-3.6-.9c-.5.9-.9 1.9-1.2 2.8l3.2 2c-.4 1.9-.4 3.8 0 5.7l-3.2 2c.3 1 .7 1.9 1.2 2.8l3.6-.9c1 1.6 2.4 3 4 4l-.9 3.6c.9.5 1.9.9 2.8 1.2l2-3.2c1.9.4 3.8.4 5.7 0l2 3.2c1-.3 1.9-.7 2.8-1.2l-.9-3.6c1.6-1 3-2.4 4-4l3.6.9c.5-.9.9-1.9 1.2-2.8l-3.2-2c.4-1.9.4-3.8 0-5.7l3.2-2c-.3-1-.7-1.9-1.2-2.8l-3.6.9c-1-1.6-2.4-3-4-4l.9-3.6c-.9-.5-1.9-.9-2.8-1.2l-2 3.2c-1.9-.4-3.8-.4-5.7 0l-2-3.2c-1 .3-1.9.7-2.8 1.2l.9 3.6c-1.5 1-2.9 2.4-4 4z"/><path id="XMLID_5_" class="st1" d="M40.5 38l-2.4-2c-.8.6-1.5 1.3-2 2l2 2.4c-.7 1.2-1.1 2.6-1.1 4l-2.9 1.1c.1 1 .4 1.9.7 2.8l3-.5c.7 1.2 1.7 2.2 2.9 2.9l-.5 3c.9.4 1.8.6 2.8.7l1.1-2.9c1.4 0 2.8-.3 4-1.1l2.4 2c.8-.6 1.5-1.3 2-2l-2-2.4c.7-1.2 1.1-2.6 1.1-4l2.9-1.1c-.1-1-.4-1.9-.7-2.8l-3 .5c-.7-1.2-1.7-2.2-2.9-2.9l.5-3c-.9-.4-1.8-.6-2.8-.7l-1.2 3c-1.4-.1-2.8.3-3.9 1z"/></svg>