<svg id="Layer_1" xmlns="http://www.w3.org/2000/svg" viewBox="0 0 64 64"><style>.st0{fill:none;} .st1{fill:none;stroke:#647072;stroke-width:2;stroke-linecap:round;stroke-linejoin:round;stroke-miterlimit:10;} .st2{fill:#647072;}</style><path id="XMLID_217_" class="st0" d="M0 0h64v64H0z"/><path id="XMLID_244_" class="st1" d="M22.5 41.3v-6.6"/><path id="XMLID_243_" class="st1" d="M13.2 41.3h15.3"/><path id="XMLID_239_" class="st1" d="M44.9 50.5c0 1.1-.9 2-2 2H30.5c-1.1 0-2-.9-2-2V22.1c0-1.1.9-2 2-2h12.3c1.1 0 2 .9 2 2v28.4z"/><path id="XMLID_229_" class="st1" d="M58.4 28.2v4.5c0 1.1-.9 2-2 2h-1.8c-1.1 0-2-.9-2-2v-4.5"/><path id="XMLID_228_" class="st1" d="M52.5 18v-4.5c0-1.1.9-2 2-2h1.8c1.1 0 2 .9 2 2V18"/><path id="XMLID_226_" class="st1" d="M35.1 24.6h3.3"/><circle id="XMLID_225_" class="st2" cx="36.7" cy="47.1" r="1.8"/><path id="XMLID_235_" class="st1" d="M60.6 26.2c0 1.1-.9 2-2 2h-6.2c-1.1 0-2-.9-2-2V20c0-1.1.9-2 2-2h6.2c1.1 0 2 .9 2 2v6.2z"/><path id="XMLID_211_" class="st1" d="M28.5 34.7H5.4c-1.1 0-2-.9-2-2V13.5c0-1.1.9-2 2-2h34.2c1.1 0 2 .9 2 2v6.6"/></svg>