<svg xmlns="http://www.w3.org/2000/svg" viewBox="0 0 820 420" enable-background="new 0 0 820 420"><path fill="#0F5DAD" d="M410 0c-116 0-210 94-210 210s94 210 210 210 210-94 210-210-94-210-210-210zm82.3 374.3c-17.1 4.8-63.4 13-108.6-21.8-36-27.7-63.7-48.8-82.5-63.7s-37.5-15-56.2 0l-.8.6c-11.5-24-18-50.9-18-79.4 0-71.9 41.3-134.1 101.4-164.3 17.1-4.8 63.4-13 108.6 21.8 36 27.7 63.7 48.8 82.5 63.7 18.7 15 37.5 15 56.2 0l.8-.6c11.5 24 18 50.9 18 79.4.1 71.9-41.3 134.1-101.4 164.3zm4-186.8h-63.7v-63.7c0-6.2-5-11.2-11.2-11.2h-22.5c-6.2 0-11.2 5-11.2 11.2v63.7h-63.7c-6.2 0-11.2 5-11.2 11.2v22.5c0 6.2 5 11.2 11.2 11.2h63.7v63.7c0 6.2 5 11.2 11.2 11.2h22.5c6.2 0 11.2-5 11.2-11.2v-63.7h63.7c6.2 0 11.2-5 11.2-11.2v-22.5c0-6.2-5-11.2-11.2-11.2z"/></svg>