<svg xmlns="http://www.w3.org/2000/svg" viewBox="0 0 512 512" enable-background="new 0 0 512 512"><path d="M256 0c-141.385 0-256 114.615-256 256s114.615 256 256 256 256-114.615 256-256-114.615-256-256-256zm100.329 456.264c-20.894 5.887-77.331 15.845-132.329-26.55-43.886-33.828-77.714-59.429-100.571-77.714s-45.714-18.286-68.571 0l-.936.744c-14.046-29.286-21.922-62.094-21.922-96.744 0-87.631 50.35-163.458 123.671-200.264 20.894-5.887 77.331-15.845 132.329 26.55 43.886 33.828 77.714 59.429 100.571 77.714 22.857 18.286 45.714 18.286 68.571 0l.936-.744c14.046 29.286 21.922 62.094 21.922 96.744 0 87.631-50.35 163.458-123.671 200.264zm4.814-227.693h-77.714v-77.714c0-7.574-6.14-13.714-13.714-13.714h-27.429c-7.574 0-13.714 6.14-13.714 13.714v77.714h-77.714c-7.574 0-13.714 6.14-13.714 13.714v27.429c0 7.574 6.14 13.714 13.714 13.714h77.714v77.714c0 7.574 6.14 13.714 13.714 13.714h27.429c7.574 0 13.714-6.14 13.714-13.714v-77.714h77.714c7.574 0 13.714-6.14 13.714-13.714v-27.429c0-7.573-6.14-13.714-13.714-13.714z" fill="#fff"/></svg>