<svg xmlns="http://www.w3.org/2000/svg" viewBox="0 0 40 40" enable-background="new 0 0 40 40"><path fill="#51B31E" d="M40 36c0 2.2-1.8 4-4 4h-32c-2.2 0-4-1.8-4-4v-32c0-2.2 1.8-4 4-4h32c2.2 0 4 1.8 4 4v32z"/><path fill="#fff" d="M31.2 26.5l-5.3-15.3c-.8-2.1-1.7-3.6-4.7-4.7l-8.9.2v4h2.5l-8.4 19.8h6.7l1.5-4.4h9.4l.6 1.7c.3.9 1.1 3 3.5 3.2 3.1.3 4.9-.7 4.9-.7v-3.8h-1.8zm-14.9-5.3l3-8.9 3.1 8.9h-6.1z"/><g opacity=".5"><linearGradient id="a" gradientUnits="userSpaceOnUse" x1="15.771" y1="14.729" x2="38.104" y2="37.061"><stop offset="0" stop-color="#231F20"/><stop offset="1" stop-color="#231F20" stop-opacity="0"/></linearGradient><path opacity=".7" fill="url(#a)" d="M19.3 12.3l-3 8.9h6z"/><linearGradient id="b" gradientUnits="userSpaceOnUse" x1="13.226" y1="17.274" x2="35.558" y2="39.607"><stop offset="0" stop-color="#231F20"/><stop offset="1" stop-color="#231F20" stop-opacity="0"/></linearGradient><path opacity=".7" fill="url(#b)" d="M24.5 8.5c.7.8 1.1 1.7 1.5 2.7l5.3 15.3h1.7v3.8s-1.8 1-4.9.7c-2.4-.2-3.2-2.3-3.5-3.2l-.6-1.7h-9.4l-1.5 4.4h-6.7l9.6 9.5h22.1l1.9-1.9v-14l-15.5-15.6z"/><linearGradient id="c" gradientUnits="userSpaceOnUse" x1="16.785" y1="13.715" x2="39.117" y2="36.047"><stop offset="0" stop-color="#231F20"/><stop offset="1" stop-color="#231F20" stop-opacity="0"/></linearGradient><path opacity=".7" fill="url(#c)" d="M14.9 10.6h-2.5l1.7 1.7z"/></g></svg>