<svg xmlns="http://www.w3.org/2000/svg" viewBox="0 0 104 27" enable-background="new 0 0 104 27"><path fill="#004B88" d="M104 26.5c0 .3-.3.5-.6.5h-102.8c-.3 0-.6-.2-.6-.5v-26c0-.3.3-.5.6-.5h102.8c.3 0 .6.2.6.5v26z"/><path fill-rule="evenodd" clip-rule="evenodd" fill="#F9A51A" d="M72.6 20c0 .5-.5 1-1.3 1-.7 0-1.2-.5-1.2-1v-.8c0-.5.5-1 1.2-1 .8 0 1.2.6 1.2 1.1v.7h.1z"/><path fill="#fff" d="M60.2 6.2c0 .5-.5.9-1.3.9-.7 0-1.2-.5-1.2-1v-.7c0-.5.4-1.1 1.2-1.1.8 0 1.3.5 1.3 1.1v.8z"/><path fill-rule="evenodd" clip-rule="evenodd" fill="#F9A51A" d="M14.9 8.9c1.4 0 2.7.6 3.7 1.6 0-.5.3-.8.7-.8h.1c.7 0 .8.6.8.8v7.2c0 .5.5.7.8.4 1.2-1.2 2.5-6.1-.7-9-3-2.7-7.1-2.2-9.3-.7-2.3 1.6-3.8 5.1-2.3 8.4 1.6 3.6 6 4.7 8.7 3.6 1.3-.5 2 1.3.6 1.9-2.1.9-8 .8-10.7-3.9-1.9-3.2-1.8-8.9 3.2-11.8 3.8-2.2 8.7-1.6 11.7 1.5 3.1 3.3 2.9 9.4-.1 11.8-1.4 1.1-3.4 0-3.4-1.5v-.5c-1 1-2.2 1.5-3.6 1.5-2.8 0-5.2-2.4-5.2-5.2-.2-2.8 2.2-5.3 5-5.3zm3.5 5.1c-.1-2-1.6-3.2-3.4-3.2h-.1c-2.1 0-3.2 1.6-3.2 3.5 0 2.1 1.4 3.4 3.2 3.4 2.1 0 3.4-1.5 3.5-3.3v-.4z"/><path fill="#F9A51A" d="M98.5 9.5v-1.3h.6c.2 0 .3 0 .4.1.1.1.1.2.1.3 0 .1 0 .2-.1.2-.1.1-.1.1-.2.1.1 0 .1 0 .2.1 0 0 .1.1.1.2v.3h-.2v-.3c0-.1 0-.2-.1-.2 0 0-.1-.1-.2-.1h-.3v.6h-.3zm.2-1.2v.5h.3c.1 0 .2 0 .2-.1 0 0 .1-.1.1-.2s0-.1-.1-.2c0 0-.1-.1-.2-.1h-.3v.1zm.4-.9c-.8 0-1.4.6-1.4 1.4 0 .8.6 1.4 1.4 1.4.8 0 1.4-.6 1.4-1.4 0-.7-.7-1.4-1.4-1.4zm0 2.7c-.7 0-1.2-.5-1.2-1.2s.5-1.2 1.2-1.2 1.2.5 1.2 1.2c0 .6-.6 1.2-1.2 1.2z"/><path fill="#fff" d="M37.9 8.2c-1.5 0-2.7.9-3.4 1.4-.8-.9-1.8-1.4-2.9-1.4-1.1-.1-2.1.3-2.8.8-.2-.5-.5-.8-1.1-.8-.6 0-1.2.5-1.2 1.3v10.3c0 .6.5 1.2 1.2 1.2.8 0 1.2-.6 1.2-1.2v-7.6c0-.7 1.3-1.6 2.3-1.6.7 0 1.5.7 1.5 1.8v7.5c0 .7.7 1.2 1.3 1.2.7 0 1.3-.5 1.3-1.2v-7.6c0-.9 1.4-1.7 2.4-1.7.8 0 1.4.9 1.4 1.7v7.6c0 .7.6 1.2 1.3 1.2.6 0 1.3-.4 1.3-1.2v-7.5c.1-3-2.6-4.3-3.8-4.2zm21 0c-.7 0-1.2.6-1.2 1.2v10.3c0 .7.5 1.2 1.2 1.2.8 0 1.3-.6 1.3-1.3v-10.3c0-.5-.6-1.1-1.3-1.1zm-4.3 0c-.7 0-1.2.6-1.2 1.1v.4c-1.1-.9-2.5-1.5-4.1-1.5-3.3 0-6.3 2.8-6.3 6.4 0 3.3 2.8 6.4 6.4 6.4 1.4 0 3-.5 4-1.5v.3c0 .6.5 1.2 1.2 1.2.9 0 1.2-.7 1.2-1.2v-10.5c.1-.4-.4-1.1-1.2-1.1zm-5.2 10.4c-2.2 0-4-1.8-4-4s1.8-4 4-4 4 1.8 4 4c.1 2.2-1.8 4-4 4zm18-.1c-1.6 0-3-1.2-3-3v-9c0-.7-.6-1.2-1.2-1.2-.8 0-1.2.6-1.2 1.2v9c0 3.1 2.5 5.4 5.4 5.4.9 0 1.3-.7 1.3-1.3-.1-.5-.5-1.1-1.3-1.1z"/><path fill-rule="evenodd" clip-rule="evenodd" fill="#F9A51A" d="M80.7 8.2c-3.4 0-6.4 3.1-6.4 6.4v5.2c0 .7.6 1.2 1.1 1.2.7 0 1.2-.5 1.2-1.1v-5.3c0-1.9 1.7-4 4-4 .8 0 1.3-.6 1.3-1.2s-.3-1.2-1.2-1.2zm14.3 0c-.7 0-1.2.6-1.2 1.2v5.2c0 2-1.7 4-4.1 4-1.9 0-4-1.7-4-4v-5.2c0-.5-.4-1.2-1.2-1.2-.6 0-1.2.5-1.2 1.2v5.2c0 3.4 3 6.4 6.4 6.4 3.7 0 6.5-3.1 6.5-6.4v-5.3c0-.6-.5-1.1-1.2-1.1z"/></svg>