<svg xmlns="http://www.w3.org/2000/svg" viewBox="0 0 512 512" enable-background="new 0 0 512 512"><path fill="#fff" d="M408.7 76c6.9 0 13 2.4 18.2 7.3s7.8 11.1 7.8 18.7v231.6c0 6.9-2.6 13-7.8 18.2-5.2 5.2-11.3 7.8-18.2 7.8h-108v60.2h99.7v12.5h-289.8v-12.5h99.7v-60.2h-107c-7.6 0-13.9-2.6-18.7-7.8-4.9-5.2-7.3-11.2-7.3-18.2v-231.7c0-7.6 2.4-13.8 7.3-18.7 4.8-4.8 11.1-7.3 18.7-7.3l305.4.1zm-305.4 12.4c-3.5 0-6.6 1.4-9.3 4.2-2.8 2.8-4.2 5.9-4.2 9.3v140.2h66.5l50.9-104.9 99.7 126.8 45.7-71.7h68.6v-90.4c0-3.5-1.2-6.6-3.6-9.3-2.4-2.8-5.4-4.2-8.8-4.2h-305.5zm305.4 257.7c3.5 0 6.4-1.2 8.8-3.6s3.6-5.4 3.6-8.8v-127.9h-61.3l-51.9 82.1-97.6-125.7-45.7 92.4h-74.8v78.9c0 2.1.7 4.2 2.1 6.2 1.4 2.1 2.9 3.6 4.7 4.7 1.7 1 4 1.6 6.8 1.6l305.3.1zm-121.5 73.7v-60.2h-63.4v60.2h63.4z"/></svg>