<svg xmlns="http://www.w3.org/2000/svg" viewBox="0 0 512 512" enable-background="new 0 0 512 512"><path fill="#fff" d="M124.8 144.5l-44.7 35.3 34.3-45.7-34.3-44.6 44.7 34.3 45.7-34.3-35.3 44.7 35.3 45.7-45.7-35.4zm240.4-72.2c14.2-3.8 27.7-2.1 40.5 5.2 12.8 7.3 20.9 17.8 24.4 31.7s1.7 27.4-5.2 40.5l-54 93.5 6.2 183.9-4.2 2.1c-9 5.6-22.5 8.3-40.5 8.3-33.9 0-72-11.8-114.3-35.3-19.4-11.1-36-22.5-49.9-34.3-13.9-11.8-23.4-22.3-28.6-31.7-5.2-9.3-9.7-18.2-13.5-26.5s-5.2-14.4-4.2-18.2c1-3.8.9-6.4-.5-7.8l1-4.2 153.7-83.1 57.1-99.7c7.3-12.4 17.8-20.5 32-24.4zm-32.7 351.7c11.8 0 22.2-1.7 31.2-5.2l-6.2-167.2c-7.6 2.8-14.9 4.2-21.8 4.2-10.4 0-20.1-2.8-29.1-8.3-15.2-9-25.3-21.1-30.1-36.4l-141.3 76.9c.7 6.9 2.4 14.4 5.2 22.3 2.8 8 11.4 19.9 26 35.8 14.5 15.9 33.9 30.8 58.2 44.7 40.7 22.1 76.8 33.2 107.9 33.2zm-177.6-89.4l39.5-15.6-27 34.3c-4.9-5.5-8.1-9.9-9.9-13-1.7-3.1-2.6-5-2.6-5.7zm78.9-185.9l-30.1-15.6 18.7 5.2-14.6-12.5 30.1 15.6 15.6-30.1-4.2 17.7 11.4-13.5-15.6 30.1 30.1 15.6-17.7-5.2 14.5 12.5-30.1-15.6-15.3 30.1 4.2-17.7-11.4 13.5 14.4-30.1zm-9.8 222.8l21.3-21.3 11.4-10.4-14.5 60.2c-2.1-1.4-4-2.4-5.7-3.1s-3.6-1.6-5.7-2.6l-6.2-3.1c-2.1-1-4-2.1-5.7-3.1s-3.6-2.6-5.7-4.7c-.1-.6 3.5-4.6 10.8-11.9zm135.5-134.5l20.8-37.4c-13.2-2.1-25.3-6.2-36.4-12.5-11.8-6.9-22.2-15.9-31.2-27l-24.9 42.6c2.8 13.9 11.1 24.9 24.9 33.2 6.9 4.2 14.5 6.2 22.9 6.2 8.3.1 16.3-1.6 23.9-5.1zm-66.4 183.8l12.5-44.7 9.4 47.8c-14 .1-21.3-1-21.9-3.1zm93.4-232.6l15.6-26c-13.2-2.1-25.6-6.6-37.4-13.5s-21.8-15.9-30.1-27l-15.6 27c8.3 11.8 18.7 21.1 31.2 28 11.1 6.3 23.2 10.1 36.3 11.5zm27-45.7c5.5-9 6.9-18.9 4.2-29.6-2.8-10.7-9-18.9-18.7-24.4s-19.7-6.8-30.1-3.6c-10.4 3-18.4 9.1-23.9 18.1l-4.2 7.3c6.9 11.8 17 21.1 30.1 28 11.8 7.6 24.2 11.8 37.4 12.5l5.2-8.3z"/></svg>