<svg xmlns="http://www.w3.org/2000/svg" viewBox="0 0 512 512" enable-background="new 0 0 512 512"><path fill="#fff" d="M434.4 384.5c3.5 2.8 5.4 6.6 5.7 11.4.3 4.9-1.2 9-4.7 12.5l-23.9 27c-3.5 3.5-7.6 5.2-12.5 5.2s-8.7-1.4-11.4-4.2l-75.8-67.5c-24.9 14.5-51.9 21.8-81 21.8-43.6 0-81-15.6-112.2-46.7-31.2-31.2-46.7-68.6-46.7-112.2s15.6-81 46.7-112.2c31.2-31.2 68.6-46.7 112.2-46.7s81 15.6 112.2 46.7c31.2 31.2 46.7 68.6 46.7 112.2 0 31.9-9 61.3-27 88.3l71.7 64.4zm-329.8-225.4c-12.8 22.2-19.2 46.4-19.2 72.7s6.4 50.7 19.2 73.2 30.5 40.2 53 53 46.9 19.2 73.2 19.2 50.7-6.4 73.2-19.2c22.5-12.8 40.2-30.5 53-53s19.2-46.9 19.2-73.2-6.4-50.5-19.2-72.7c-12.8-22.2-30.5-39.8-53-53-22.5-13.1-46.9-19.7-73.2-19.7s-50.7 6.6-73.2 19.7c-22.6 13.2-40.2 30.8-53 53zm136.6-21.8l-22.9 83.1 73.8-1-75.8 107 23.9-85.2h-70.6l71.6-103.9zm184.9 261.7c.7-.7.9-1.6.5-2.6s-.9-1.9-1.6-2.6l-69.6-63.4c-9.7 11.8-20.4 21.8-32.2 30.1l72.7 66.5c.7.7 1.7.7 3.1 0 .7 0 1.4-.3 2.1-1l25-27z"/></svg>