<svg xmlns="http://www.w3.org/2000/svg" viewBox="0 0 512 512" enable-background="new 0 0 512 512"><path fill="#fff" d="M425.3 88.4c21.5 21.5 22.2 57.8 2.1 109.1-12.5 31.9-30.8 63-55.1 93.5 10.4 24.9 11.1 49.5 2.1 73.8-9 25.6-19.1 47.8-30.1 66.5l-6.2 10.4-44.7-80c-16.6 7.6-33.6 11.4-50.9 11.4-29.1 0-53.3-9.7-72.7-29.1-19.4-18.7-29.8-42.2-31.2-70.6-.7-18 3.5-36.4 12.5-55.1l-81-44.7 10.4-5.2c20.1-11.8 42.2-21.8 66.5-30.1 24.2-9 48.5-8.7 72.7 1 17.3-13.1 35.3-24.9 54-35.3s37-18.3 55.1-23.9c18-5.5 34.3-8.3 48.8-8.3 20.7 0 36.6 5.6 47.7 16.6zm-254.5 285.7l12.5-3.1c3.5 16.6-1.4 31.5-14.5 44.7-4.9 4.9-13.2 9-24.9 12.5-14.5 4.2-32.9 7.3-55.1 9.3h-7.3v-7.3c1.4-40.2 6.9-67.2 16.6-81 4.2-6.9 10.4-11.8 18.7-14.5 8.3-2.8 14.5-4 18.7-3.6s7.3.9 9.3 1.6l-3.1 13.5c-14.5-3.5-25.6 0-33.2 10.4-6.9 10.4-11.4 32.9-13.5 67.5 18-2.1 32.9-4.8 44.7-8.3 9.7-2.8 16.3-5.9 19.7-9.3 9.7-9.9 13.5-20.6 11.4-32.4zm-72.7-200.5l59.2 33.2c5.5-10.4 13.1-20.8 22.9-31.2.7-.7 1-1.4 1-2.1 2.8-2.1 4.5-3.5 5.2-4.2 6.9-6.9 14.2-13.5 21.8-19.7-20.1-5.5-38.8-5.2-56.1 1-18 6.4-36 14-54 23zm144.4 187c28.4 0 56.1-12.5 83.1-37.4 2.8-20.1-14.5-48.8-51.9-86.2-36.7-36.7-64.8-54-84.1-51.9-26.3 28.4-38.8 57.8-37.4 88.3 1.4 24.2 10.4 44.7 27 61.3 17.2 17.2 38.4 25.9 63.3 25.9zm95.6-49.9c34.6-36 60.2-75.5 76.9-118.4 18-45.7 18-77.2 0-94.5-8.3-8.3-20.8-12.5-37.4-12.5-24.2 0-53 8.3-86.2 24.9s-63.4 37.4-90.4 62.3c22.9 5.5 50.2 23.9 82.1 55.1 31.7 32.6 50.1 60.3 55 83.1zm23.8 49.9c6.2-18 6.6-37 1-57.1-7.6 8.3-14.2 15.6-19.7 21.8-12.5 12.5-24.9 22.5-37.4 30.1l32.2 59.2c9.7-18 17.7-36 23.9-54z"/></svg>